<?xml version="1.0" encoding="UTF-8"?>
<svg id="Layer_2" data-name="Layer 2" xmlns="http://www.w3.org/2000/svg" xmlns:xlink="http://www.w3.org/1999/xlink" viewBox="0 0 375.6 183.93">
  <defs>
    <style>
      .cls-1 {
        mask: url(#mask);
      }

      .cls-2 {
        fill: url(#linear-gradient);
      }

      .cls-2, .cls-3, .cls-4, .cls-5, .cls-6, .cls-7, .cls-8, .cls-9, .cls-10, .cls-11, .cls-12, .cls-13, .cls-14, .cls-15 {
        stroke-width: 0px;
      }

      .cls-16 {
        font-size: 45.02px;
      }

      .cls-16, .cls-17 {
        fill: #202a25;
        font-family: ZeroesOne-Regular, 'Zeroes 1';
      }

      .cls-3 {
        fill: url(#linear-gradient-4);
      }

      .cls-4 {
        fill: url(#linear-gradient-2);
      }

      .cls-5 {
        fill: url(#linear-gradient-3);
      }

      .cls-6 {
        fill: url(#linear-gradient-8);
      }

      .cls-7 {
        fill: url(#linear-gradient-9);
      }

      .cls-8 {
        fill: url(#linear-gradient-7);
      }

      .cls-9 {
        fill: url(#linear-gradient-5);
      }

      .cls-10 {
        fill: url(#linear-gradient-6);
      }

      .cls-17 {
        font-size: 83.64px;
      }

      .cls-18 {
        mask: url(#mask-2);
      }

      .cls-19 {
        mask: url(#mask-1);
      }

      .cls-11 {
        fill: #f3f4f4;
      }

      .cls-12 {
        fill: #096c38;
      }

      .cls-13 {
        fill: #32423a;
      }

      .cls-14 {
        fill: #fff;
      }

      .cls-15 {
        fill: #028d46;
      }
    </style>
    <linearGradient id="linear-gradient" x1="66.85" y1="63.41" x2="110.95" y2="63.41" gradientUnits="userSpaceOnUse">
      <stop offset="0" stop-color="#056c38"/>
      <stop offset=".56" stop-color="#034020"/>
    </linearGradient>
    <linearGradient id="linear-gradient-2" x1="92.92" y1="64.05" x2="119.81" y2="64.05" gradientUnits="userSpaceOnUse">
      <stop offset="0" stop-color="#d08330"/>
      <stop offset="1" stop-color="#efd991"/>
    </linearGradient>
    <linearGradient id="linear-gradient-3" x1="143.53" y1=".76" x2="143.53" y2="173.18" gradientUnits="userSpaceOnUse">
      <stop offset="0" stop-color="#fff"/>
      <stop offset=".99" stop-color="#f3ce62"/>
    </linearGradient>
    <mask id="mask" x="100.42" y=".76" width="89.54" height="172.43" maskUnits="userSpaceOnUse">
      <path class="cls-11" d="m150.03,101.03l-2.09,2.14c-.58.59-.54,1.54.08,2.08l16.17,14.19c.93.81,2.38.16,2.38-1.08v-19.77s0-39.1,0-39.1c0-1.25-1.49-1.9-2.41-1.06l-30.56,28.15c-.27.24-.61.38-.97.38h-30.77c-1.28,0-1.92-1.55-1.02-2.45L184.18,1.18c.91-.91,2.45-.26,2.45,1.02v169.55c0,1.28-1.55,1.92-2.45,1.02l-71.72-71.72c-.91-.91-.26-2.45,1.02-2.45h35.53c1.27,0,1.92,1.53,1.03,2.44Z"/>
    </mask>
    <linearGradient id="linear-gradient-4" x1="103.74" y1="86.97" x2="189.95" y2="86.97" gradientUnits="userSpaceOnUse">
      <stop offset="0" stop-color="#efd991"/>
      <stop offset="1" stop-color="#f3ce62"/>
    </linearGradient>
    <mask id="mask-1" x="5.86" y="95.47" width="176.35" height="88.46" maskUnits="userSpaceOnUse">
      <g>
        <path class="cls-14" d="m44.51,165.19l58.36-58.36c.44-.44.44-1.15,0-1.58l-9.44-9.44c-.44-.44-1.15-.44-1.58,0L6.19,181.47c-.71.71-.21,1.91.79,1.91h171.34c1,0,1.5-1.21.79-1.91l-14.05-14.05c-.21-.21-.49-.33-.79-.33H45.3c-1,0-1.5-1.21-.79-1.91Z"/>
        <g>
          <polygon class="cls-14" points="101.88 128.84 96.99 133.73 131.37 133.73 126.48 128.84 101.88 128.84"/>
          <path class="cls-14" d="m146.02,148.39h-63.69l-3.18,3.18c-.71.71-.21,1.91.79,1.91h68.47c1,0,1.5-1.21.79-1.91l-3.18-3.18Z"/>
          <path class="cls-14" d="m121.6,123.96l-6.63-6.63c-.44-.44-1.15-.44-1.58,0l-6.63,6.63h14.83Z"/>
          <polygon class="cls-14" points="141.14 143.5 136.25 138.62 92.1 138.62 87.22 143.5 141.14 143.5"/>
        </g>
      </g>
    </mask>
    <linearGradient id="linear-gradient-5" x1="8.62" y1="139.98" x2="182.2" y2="139.98" gradientUnits="userSpaceOnUse">
      <stop offset="0" stop-color="#2d3b34"/>
      <stop offset="1" stop-color="#202a25"/>
    </linearGradient>
    <linearGradient id="linear-gradient-6" x1="99.76" y1="131.84" x2="134.14" y2="131.84" xlink:href="#linear-gradient-5"/>
    <linearGradient id="linear-gradient-7" x1="81.59" y1="151.49" x2="152.3" y2="151.49" xlink:href="#linear-gradient-5"/>
    <linearGradient id="linear-gradient-8" x1="109.53" y1="121.04" x2="124.36" y2="121.04" xlink:href="#linear-gradient-5"/>
    <linearGradient id="linear-gradient-9" x1="89.99" y1="141.61" x2="143.91" y2="141.61" xlink:href="#linear-gradient-5"/>
    <mask id="mask-2" x="0" y="0" width="89.38" height="172.19" maskUnits="userSpaceOnUse">
      <path class="cls-14" d="m36.78,100.14l2.09,2.12c.58.59.54,1.55-.08,2.09l-16.25,14.18c-.93.81-2.38.15-2.38-1.08v-58.8c0-1.25,1.49-1.9,2.41-1.06l30.72,28.12c.26.24.61.38.97.38h30.92c1.28,0,1.92-1.55,1.01-2.46L2.45.42C1.54-.48,0,.16,0,1.44v169.31c0,1.28,1.54,1.92,2.45,1.02l72.06-71.62c.91-.9.27-2.46-1.01-2.46h-35.7c-1.27,0-1.92,1.54-1.02,2.44Z"/>
    </mask>
  </defs>
  <g id="Layer_1-2" data-name="Layer 1">
    <g>
      <path class="cls-2" d="m109.18,62.58l-22.78,22.78c-.38.38-2.47.38-3.75-.9l-14.83-14.83c-1.28-1.28-1.28-3.37,0-4.65l22.78-22.78c1.28-1.28,3.37-1.28,4.65,0l14.83,14.83c1.28,1.28,1.28,3.37-.9,5.56Z"/>
      <path class="cls-15" d="m36.78,100.14l2.09,2.12c.58.59.54,1.55-.08,2.09l-16.25,14.18c-.93.81-2.38.15-2.38-1.08v-58.8c0-1.25,1.49-1.9,2.41-1.06l30.72,28.12c.26.24.61.38.97.38h30.92c1.28,0,1.92-1.55,1.01-2.46L2.45.42C1.54-.48,0,.16,0,1.44v169.31c0,1.28,1.54,1.92,2.45,1.02l72.06-71.62c.91-.9.27-2.46-1.01-2.46h-35.7c-1.27,0-1.92,1.54-1.02,2.44Z"/>
      <g>
        <path class="cls-13" d="m44.51,165.19l58.36-58.36c.44-.44.44-1.15,0-1.58l-9.44-9.44c-.44-.44-1.15-.44-1.58,0L6.19,181.47c-.71.71-.21,1.91.79,1.91h171.34c1,0,1.5-1.21.79-1.91l-14.05-14.05c-.21-.21-.49-.33-.79-.33H45.3c-1,0-1.5-1.21-.79-1.91Z"/>
        <g>
          <polygon class="cls-13" points="101.88 128.84 96.99 133.73 131.37 133.73 126.48 128.84 101.88 128.84"/>
          <path class="cls-13" d="m146.02,148.39h-63.69l-3.18,3.18c-.71.71-.21,1.91.79,1.91h68.47c1,0,1.5-1.21.79-1.91l-3.18-3.18Z"/>
          <path class="cls-13" d="m121.6,123.96l-6.63-6.63c-.44-.44-1.15-.44-1.58,0l-6.63,6.63h14.83Z"/>
          <polygon class="cls-13" points="141.14 143.5 136.25 138.62 92.1 138.62 87.22 143.5 141.14 143.5"/>
        </g>
      </g>
      <path class="cls-4" d="m118.85,65.8l-23.6-23.6c-.64-.64-1.48-.96-2.33-.96v37.6l7.49,7.49c.71.71,1.86.71,2.56,0l15.87-15.87c1.28-1.28,1.28-3.38,0-4.66Z"/>
      <path class="cls-5" d="m150.03,101.03l-2.09,2.14c-.58.59-.54,1.54.08,2.08l16.17,14.19c.93.81,2.38.16,2.38-1.08v-19.77s0-39.1,0-39.1c0-1.25-1.49-1.9-2.41-1.06l-30.56,28.15c-.27.24-.61.38-.97.38h-30.77c-1.28,0-1.92-1.55-1.02-2.45L184.18,1.18c.91-.91,2.45-.26,2.45,1.02v169.55c0,1.28-1.55,1.92-2.45,1.02l-71.72-71.72c-.91-.91-.26-2.45,1.02-2.45h35.53c1.27,0,1.92,1.53,1.03,2.44Z"/>
      <text class="cls-17" transform="translate(206.57 112.91)"><tspan x="0" y="0">GLG</tspan></text>
      <text class="cls-16" transform="translate(212.77 155.66)"><tspan x="0" y="0">GAMES</tspan></text>
      <g class="cls-1">
        <path class="cls-3" d="m153.35,101.03l-2.09,2.14c-.58.59-.54,1.54.08,2.08l16.17,14.19c.93.81,2.38.16,2.38-1.08v-19.77s0-39.1,0-39.1c0-1.25-1.49-1.9-2.41-1.06l-30.56,28.15c-.27.24-.61.38-.97.38h-30.77c-1.28,0-1.92-1.55-1.02-2.45L187.5,1.18c.91-.91,2.45-.26,2.45,1.02v169.55c0,1.28-1.55,1.92-2.45,1.02l-71.72-71.72c-.91-.91-.26-2.45,1.02-2.45h35.53c1.27,0,1.92,1.53,1.03,2.44Z"/>
      </g>
      <g class="cls-19">
        <g>
          <path class="cls-9" d="m47.28,165.74l58.36-58.36c.44-.44.44-1.15,0-1.58l-9.44-9.44c-.44-.44-1.15-.44-1.58,0L8.95,182.02c-.71.71-.21,1.91.79,1.91h171.34c1,0,1.5-1.21.79-1.91l-14.05-14.05c-.21-.21-.49-.33-.79-.33H48.07c-1,0-1.5-1.21-.79-1.91Z"/>
          <g>
            <polygon class="cls-10" points="104.64 129.4 99.76 134.28 134.14 134.28 129.25 129.4 104.64 129.4"/>
            <path class="cls-8" d="m148.79,148.94h-63.69l-3.18,3.18c-.71.71-.21,1.91.79,1.91h68.47c1,0,1.5-1.21.79-1.91l-3.18-3.18Z"/>
            <path class="cls-6" d="m124.36,124.51l-6.63-6.63c-.44-.44-1.15-.44-1.58,0l-6.63,6.63h14.83Z"/>
            <polygon class="cls-7" points="143.91 144.05 139.02 139.17 94.87 139.17 89.99 144.05 143.91 144.05"/>
          </g>
        </g>
      </g>
      <g class="cls-18">
        <path class="cls-12" d="m39.55,100.14l2.09,2.12c.58.59.54,1.55-.08,2.09l-16.25,14.18c-.93.81-2.38.15-2.38-1.08v-58.8c0-1.25,1.49-1.9,2.41-1.06l30.72,28.12c.26.24.61.38.97.38h30.92c1.28,0,1.92-1.55,1.01-2.46L5.22.42c-.91-.9-2.45-.26-2.45,1.02v169.31c0,1.28,1.54,1.92,2.45,1.02l72.06-71.62c.91-.9.27-2.46-1.01-2.46h-35.7c-1.27,0-1.92,1.54-1.02,2.44Z"/>
      </g>
    </g>
  </g>
</svg>