<?xml version="1.0" encoding="UTF-8"?>
<svg id="Layer_2" data-name="Layer 2" xmlns="http://www.w3.org/2000/svg" xmlns:xlink="http://www.w3.org/1999/xlink" viewBox="0 0 68.53 68.53">
  <defs>
    <style>
      .cls-1 {
        mask: url(#mask);
      }

      .cls-2 {
        mask: url(#mask-2);
      }

      .cls-3 {
        mask: url(#mask-1);
      }

      .cls-4 {
        fill: #f3f4f4;
      }

      .cls-4, .cls-5, .cls-6 {
        stroke-width: 0px;
      }

      .cls-5 {
        fill: #2a2a2a;
      }

      .cls-6 {
        fill: #fff;
      }
    </style>
    <mask id="mask" x="35.93" y="11.9" width="23.2" height="44.68" maskUnits="userSpaceOnUse">
      <path class="cls-4" d="m48.78,37.89l-.54.55c-.15.15-.14.4.02.54l4.19,3.68c.24.21.62.04.62-.28v-5.12s0-10.13,0-10.13c0-.32-.39-.49-.62-.27l-7.92,7.29c-.07.06-.16.1-.25.1h-7.97c-.33,0-.5-.4-.26-.64l21.6-21.6c.23-.23.64-.07.64.26v43.94c0,.33-.4.5-.64.26l-18.58-18.58c-.23-.23-.07-.64.26-.64h9.21c.33,0,.5.4.27.63Z"/>
    </mask>
    <mask id="mask-1" x="11.42" y="36.45" width="45.7" height="22.92" maskUnits="userSpaceOnUse">
      <g>
        <path class="cls-6" d="m21.44,54.51l15.12-15.12c.11-.11.11-.3,0-.41l-2.45-2.45c-.11-.11-.3-.11-.41,0l-22.2,22.2c-.18.18-.05.5.21.5h44.4c.26,0,.39-.31.21-.5l-3.64-3.64c-.05-.05-.13-.08-.21-.08h-30.83c-.26,0-.39-.31-.21-.5Z"/>
        <g>
          <polygon class="cls-6" points="36.31 45.09 35.04 46.36 43.95 46.36 42.68 45.09 36.31 45.09"/>
          <path class="cls-6" d="m47.75,50.16h-16.5l-.82.82c-.18.18-.05.5.21.5h17.74c.26,0,.39-.31.21-.5l-.82-.82Z"/>
          <path class="cls-6" d="m41.42,43.83l-1.72-1.72c-.11-.11-.3-.11-.41,0l-1.72,1.72h3.84Z"/>
          <polygon class="cls-6" points="46.48 48.89 45.21 47.63 33.77 47.63 32.51 48.89 46.48 48.89"/>
        </g>
      </g>
    </mask>
    <mask id="mask-2" x="9.91" y="11.71" width="23.16" height="44.62" maskUnits="userSpaceOnUse">
      <path class="cls-6" d="m19.44,37.66l.54.55c.15.15.14.4-.02.54l-4.21,3.67c-.24.21-.62.04-.62-.28v-15.24c0-.32.38-.49.62-.27l7.96,7.29c.07.06.16.1.25.1h8.01c.33,0,.5-.4.26-.64L10.54,11.82c-.23-.23-.63-.07-.63.26v43.87c0,.33.4.5.63.26l18.67-18.56c.24-.23.07-.64-.26-.64h-9.25c-.33,0-.5.4-.27.63Z"/>
    </mask>
  </defs>
  <g id="Layer_1-2" data-name="Layer 1">
    <g>
      <path class="cls-5" d="m63.46,0H5.05C2.27,0,0,2.21,0,4.94v58.64c0,2.73,2.27,4.94,5.05,4.94h58.4c2.79,0,5.07-2.22,5.07-4.94V4.94c0-2.73-2.28-4.94-5.07-4.94"/>
      <g>
        <path class="cls-6" d="m38.2,27.92l-5.9,5.9c-.1.1-.64.1-.97-.23l-3.84-3.84c-.33-.33-.33-.87,0-1.21l5.9-5.9c.33-.33.87-.33,1.21,0l3.84,3.84c.33.33.33.87-.23,1.44Z"/>
        <path class="cls-6" d="m19.44,37.66l.54.55c.15.15.14.4-.02.54l-4.21,3.67c-.24.21-.62.04-.62-.28v-15.24c0-.32.38-.49.62-.27l7.96,7.29c.07.06.16.1.25.1h8.01c.33,0,.5-.4.26-.64L10.54,11.82c-.23-.23-.63-.07-.63.26v43.87c0,.33.4.5.63.26l18.67-18.56c.24-.23.07-.64-.26-.64h-9.25c-.33,0-.5.4-.27.63Z"/>
        <g>
          <path class="cls-6" d="m21.44,54.51l15.12-15.12c.11-.11.11-.3,0-.41l-2.45-2.45c-.11-.11-.3-.11-.41,0l-22.2,22.2c-.18.18-.05.5.21.5h44.4c.26,0,.39-.31.21-.5l-3.64-3.64c-.05-.05-.13-.08-.21-.08h-30.83c-.26,0-.39-.31-.21-.5Z"/>
          <g>
            <polygon class="cls-6" points="36.31 45.09 35.04 46.36 43.95 46.36 42.68 45.09 36.31 45.09"/>
            <path class="cls-6" d="m47.75,50.16h-16.5l-.82.82c-.18.18-.05.5.21.5h17.74c.26,0,.39-.31.21-.5l-.82-.82Z"/>
            <path class="cls-6" d="m41.42,43.83l-1.72-1.72c-.11-.11-.3-.11-.41,0l-1.72,1.72h3.84Z"/>
            <polygon class="cls-6" points="46.48 48.89 45.21 47.63 33.77 47.63 32.51 48.89 46.48 48.89"/>
          </g>
        </g>
        <path class="cls-6" d="m40.7,28.76l-6.12-6.12c-.17-.17-.38-.25-.6-.25v9.74l1.94,1.94c.18.18.48.18.66,0l4.11-4.11c.33-.33.33-.87,0-1.21Z"/>
        <path class="cls-6" d="m48.78,37.89l-.54.55c-.15.15-.14.4.02.54l4.19,3.68c.24.21.62.04.62-.28v-5.12s0-10.13,0-10.13c0-.32-.39-.49-.62-.27l-7.92,7.29c-.07.06-.16.1-.25.1h-7.97c-.33,0-.5-.4-.26-.64l21.6-21.6c.23-.23.64-.07.64.26v43.94c0,.33-.4.5-.64.26l-18.58-18.58c-.23-.23-.07-.64.26-.64h9.21c.33,0,.5.4.27.63Z"/>
        <g class="cls-1">
          <path class="cls-6" d="m49.65,37.89l-.54.55c-.15.15-.14.4.02.54l4.19,3.68c.24.21.62.04.62-.28v-5.12s0-10.13,0-10.13c0-.32-.39-.49-.62-.27l-7.92,7.29c-.07.06-.16.1-.25.1h-7.97c-.33,0-.5-.4-.26-.64l21.6-21.6c.23-.23.64-.07.64.26v43.94c0,.33-.4.5-.64.26l-18.58-18.58c-.23-.23-.07-.64.26-.64h9.21c.33,0,.5.4.27.63Z"/>
        </g>
        <g class="cls-3">
          <g>
            <path class="cls-6" d="m22.16,54.65l15.12-15.12c.11-.11.11-.3,0-.41l-2.45-2.45c-.11-.11-.3-.11-.41,0l-22.2,22.2c-.18.18-.05.5.21.5h44.4c.26,0,.39-.31.21-.5l-3.64-3.64c-.05-.05-.13-.08-.21-.08h-30.83c-.26,0-.39-.31-.21-.5Z"/>
            <g>
              <polygon class="cls-6" points="37.02 45.24 35.76 46.5 44.66 46.5 43.4 45.24 37.02 45.24"/>
              <path class="cls-6" d="m48.46,50.3h-16.5l-.82.82c-.18.18-.05.5.21.5h17.74c.26,0,.39-.31.21-.5l-.82-.82Z"/>
              <path class="cls-6" d="m42.13,43.97l-1.72-1.72c-.11-.11-.3-.11-.41,0l-1.72,1.72h3.84Z"/>
              <polygon class="cls-6" points="47.2 49.04 45.93 47.77 34.49 47.77 33.22 49.04 47.2 49.04"/>
            </g>
          </g>
        </g>
        <g class="cls-2">
          <path class="cls-6" d="m20.15,37.66l.54.55c.15.15.14.4-.02.54l-4.21,3.67c-.24.21-.62.04-.62-.28v-15.24c0-.32.38-.49.62-.27l7.96,7.29c.07.06.16.1.25.1h8.01c.33,0,.5-.4.26-.64L11.26,11.82c-.23-.23-.63-.07-.63.26v43.87c0,.33.4.5.63.26l18.67-18.56c.24-.23.07-.64-.26-.64h-9.25c-.33,0-.5.4-.27.63Z"/>
        </g>
      </g>
    </g>
  </g>
</svg>