<?xml version="1.0" encoding="UTF-8"?>
<svg id="Layer_2" data-name="Layer 2" xmlns="http://www.w3.org/2000/svg" viewBox="0 0 68.53 68.53">
  <defs>
    <style>
      .cls-1 {
        fill: #2a2a2a;
      }

      .cls-1, .cls-2 {
        stroke-width: 0px;
      }

      .cls-2 {
        fill: #fff;
      }
    </style>
  </defs>
  <g id="Layer_1-2" data-name="Layer 1">
    <g>
      <path class="cls-1" d="m63.46,0H5.05C2.27,0,0,2.21,0,4.94v58.64c0,2.73,2.27,4.94,5.05,4.94h58.4c2.79,0,5.07-2.22,5.07-4.94V4.94c0-2.73-2.28-4.94-5.07-4.94"/>
      <g>
        <path class="cls-2" d="m44.38,14.45c2.66,0,5.18,1.05,7.09,2.95,1.91,1.9,2.95,4.43,2.95,7.09v20.08c0,2.66-1.05,5.18-2.95,7.09s-4.43,2.95-7.09,2.95h-20.08c-2.66,0-5.18-1.05-7.09-2.95s-2.95-4.43-2.95-7.09v-20.08c0-2.66,1.05-5.18,2.95-7.09,1.9-1.91,4.43-2.95,7.09-2.95h20.08m0-4.02h-20.08c-7.73,0-14.06,6.33-14.06,14.06v20.08c0,7.73,6.33,14.06,14.06,14.06h20.08c7.73,0,14.06-6.33,14.06-14.06v-20.08c0-7.73-6.33-14.06-14.06-14.06Z"/>
        <path class="cls-2" d="m47.39,24.5c-1.67,0-3.01-1.34-3.01-3.01s1.34-3.01,3.01-3.01,3.01,1.34,3.01,3.01-1.36,3.01-3.01,3.01Zm-13.05,2.01c4.43,0,8.03,3.6,8.03,8.03s-3.6,8.03-8.03,8.03-8.03-3.6-8.03-8.03,3.6-8.03,8.03-8.03m0-4.02c-6.65,0-12.05,5.4-12.05,12.05s5.4,12.05,12.05,12.05,12.05-5.4,12.05-12.05-5.4-12.05-12.05-12.05Z"/>
      </g>
    </g>
  </g>
</svg>