<?xml version="1.0" encoding="UTF-8"?>
<svg id="Layer_2" data-name="Layer 2" xmlns="http://www.w3.org/2000/svg" viewBox="0 0 68.53 68.53">
  <defs>
    <style>
      .cls-1 {
        fill: #2a2a2a;
      }

      .cls-1, .cls-2 {
        stroke-width: 0px;
      }

      .cls-2 {
        fill: #fff;
      }
    </style>
  </defs>
  <g id="Layer_1-2" data-name="Layer 1">
    <g>
      <path class="cls-1" d="m63.46,0H5.05C2.27,0,0,2.21,0,4.94v58.64c0,2.73,2.27,4.94,5.05,4.94h58.4c2.79,0,5.07-2.22,5.07-4.94V4.94c0-2.73-2.28-4.94-5.07-4.94"/>
      <g>
        <path class="cls-2" d="m15.24,9.43c3.25,0,5.89,2.64,5.89,5.89s-2.64,5.9-5.89,5.9-5.9-2.64-5.9-5.9,2.63-5.89,5.9-5.89m-5.09,16.26h10.17v32.7h-10.17V25.69"/>
        <path class="cls-2" d="m26.7,25.69h9.74v4.47h.14c1.36-2.57,4.67-5.28,9.62-5.28,10.29,0,12.19,6.77,12.19,15.58v17.94h-10.16v-15.9c0-3.79-.07-8.67-5.28-8.67s-6.1,4.13-6.1,8.4v16.18h-10.15V25.69"/>
      </g>
    </g>
  </g>
</svg>