<?xml version="1.0" encoding="UTF-8"?>
<svg id="Layer_2" data-name="Layer 2" xmlns="http://www.w3.org/2000/svg" viewBox="0 0 44.25 40.02">
  <defs>
    <style>
      .cls-1 {
        fill: #f5cf60;
        stroke-width: 0px;
      }
    </style>
  </defs>
  <g id="Layer_1-2" data-name="Layer 1">
    <path id="icon" class="cls-1" d="m32.01,0c-2.17,0-4.31.58-6.18,1.67-1.27.74-2.39,1.7-3.33,2.85l-.38.47-.38-.47c-.94-1.15-2.05-2.11-3.33-2.85-1.87-1.09-4-1.67-6.18-1.67C5.61,0,.23,5.35,0,12.19c-.11,3.43.98,6.91,3.26,10.34,1.8,2.7,18.85,17.49,18.85,17.49,0,0,17.06-14.79,18.85-17.49,2.28-3.43,3.38-6.91,3.27-10.34-.23-6.83-5.6-12.19-12.23-12.19Z"/>
  </g>
</svg>