<?xml version="1.0" encoding="UTF-8"?>
<svg id="Layer_2" data-name="Layer 2" xmlns="http://www.w3.org/2000/svg" viewBox="0 0 42.68 46.27">
  <defs>
    <style>
      .cls-1 {
        fill: #2a2a2a;
        stroke-width: 0px;
      }
    </style>
  </defs>
  <g id="Layer_1-2" data-name="Layer 1">
    <path id="icon" class="cls-1" d="m42.68,26.81c0,5.75-4.66,10.41-10.41,10.41-3.9,0-7.3-2.15-9.08-5.33,0-.05,0-.09,0-.12-.02,0-.04.02-.05.02.02.04.04.07.06.11.18,4.27,1.16,10.5,4.96,14.38h-13.62c3.81-3.88,4.79-10.14,4.97-14.41.05-.09.1-.18.15-.27-.05-.02-.09-.02-.14-.04,0,.1,0,.2,0,.31-1.77,3.19-5.19,5.36-9.1,5.36-5.75,0-10.41-4.66-10.41-10.41s4.66-10.41,10.41-10.41c.93,0,1.83.12,2.69.35-1.36-1.75-2.16-3.95-2.16-6.34C10.93,4.66,15.59,0,21.34,0s10.41,4.66,10.41,10.41c0,2.39-.8,4.59-2.16,6.34.86-.23,1.76-.35,2.69-.35,5.75,0,10.41,4.66,10.41,10.41Z"/>
  </g>
</svg>