<?xml version="1.0" encoding="UTF-8"?>
<svg id="Layer_2" data-name="Layer 2" xmlns="http://www.w3.org/2000/svg" viewBox="0 0 41.19 50.05">
  <defs>
    <style>
      .cls-1 {
        fill: #2a2a2a;
        stroke-width: 0px;
      }
    </style>
  </defs>
  <g id="Layer_1-2" data-name="Layer 1">
    <path id="icon" class="cls-1" d="m41.18,28.33c-.21,6.36-5.2,11.35-11.38,11.35-2.02,0-4.01-.55-5.75-1.55-.57-.33-1.12-.72-1.61-1.14.27,4.09,1.32,9.57,4.75,13.06h-13.19c3.43-3.5,4.5-8.98,4.76-13.07-.51.44-1.04.81-1.62,1.15-1.73,1.01-3.72,1.55-5.75,1.55C5.22,39.68.21,34.7,0,28.33c-.11-3.19.91-6.43,3.03-9.63C4.71,16.2,20.59,0,20.59,0c0,0,15.88,16.2,17.55,18.71,2.12,3.2,3.14,6.44,3.03,9.63Z"/>
  </g>
</svg>