<?xml version="1.0" encoding="UTF-8"?>
<svg id="Layer_2" data-name="Layer 2" xmlns="http://www.w3.org/2000/svg" viewBox="0 0 68.53 68.53">
  <defs>
    <style>
      .cls-1 {
        fill: #2a2a2a;
      }

      .cls-1, .cls-2 {
        stroke-width: 0px;
      }

      .cls-2 {
        fill: #fff;
      }
    </style>
  </defs>
  <g id="Layer_1-2" data-name="Layer 1">
    <g>
      <path class="cls-1" d="m63.46,0H5.05C2.27,0,0,2.21,0,4.94v58.64c0,2.73,2.27,4.94,5.05,4.94h58.4c2.79,0,5.07-2.22,5.07-4.94V4.94c0-2.73-2.28-4.94-5.07-4.94"/>
      <g id="surface1">
        <path class="cls-2" d="m55.47,29.81c-.41.04-.81.06-1.22.06-4.47,0-8.63-2.25-11.08-5.99v20.38c0,8.32-6.74,15.06-15.06,15.06s-15.06-6.74-15.06-15.06,6.74-15.06,15.06-15.06c.31,0,.62.03.93.05v7.42c-.31-.04-.61-.09-.93-.09-4.25,0-7.69,3.44-7.69,7.69s3.44,7.69,7.69,7.69,8-3.35,8-7.59l.07-34.62h7.1c.67,6.37,5.81,11.34,12.19,11.81v8.25"/>
      </g>
    </g>
  </g>
</svg>