<?xml version="1.0" encoding="UTF-8"?>
<svg id="Layer_2" data-name="Layer 2" xmlns="http://www.w3.org/2000/svg" viewBox="0 0 68.53 68.53">
  <defs>
    <style>
      .cls-1 {
        fill: #fff;
        fill-rule: evenodd;
      }

      .cls-1, .cls-2 {
        stroke-width: 0px;
      }

      .cls-2 {
        fill: #2a2a2a;
      }
    </style>
  </defs>
  <g id="Layer_1-2" data-name="Layer 1">
    <g>
      <path class="cls-2" d="m63.46,0H5.05C2.27,0,0,2.21,0,4.94v58.64c0,2.73,2.27,4.94,5.05,4.94h58.4c2.79,0,5.07-2.22,5.07-4.94V4.94c0-2.73-2.28-4.94-5.07-4.94"/>
      <path class="cls-1" d="m50.83,17.6c-4.4-4.4-10.24-6.83-16.47-6.83-12.84,0-23.28,10.45-23.29,23.29,0,4.1,1.07,8.11,3.11,11.64l-3.3,12.07,12.34-3.24c3.4,1.86,7.23,2.83,11.13,2.83h0c12.83,0,23.28-10.45,23.29-23.29,0-6.22-2.42-12.07-6.81-16.47Zm-16.47,35.83h0c-3.47,0-6.88-.93-9.85-2.7l-.71-.42-7.33,1.92,1.96-7.14-.46-.73c-1.94-3.08-2.96-6.64-2.96-10.3,0-10.67,8.69-19.35,19.36-19.35,5.17,0,10.03,2.02,13.68,5.68s5.67,8.52,5.66,13.69c0,10.67-8.69,19.36-19.36,19.36Zm10.62-14.5c-.58-.29-3.44-1.7-3.98-1.89-.53-.19-.92-.29-1.31.29-.39.58-1.5,1.89-1.84,2.28-.34.39-.68.44-1.26.15-.58-.29-2.46-.91-4.68-2.89-1.73-1.54-2.9-3.45-3.24-4.03-.34-.58,0-.87.26-1.19.63-.78,1.26-1.6,1.45-1.99.19-.39.1-.73-.05-1.02-.15-.29-1.31-3.16-1.79-4.32-.47-1.13-.95-.98-1.31-1-.34-.02-.73-.02-1.12-.02s-1.02.15-1.55.73c-.53.58-2.04,1.99-2.04,4.85s2.08,5.63,2.38,6.02,4.1,6.27,9.94,8.79c1.39.6,2.47.96,3.32,1.23,1.39.44,2.66.38,3.66.23,1.12-.17,3.44-1.41,3.93-2.77.48-1.36.48-2.52.34-2.77-.15-.24-.53-.39-1.11-.68Z"/>
    </g>
  </g>
</svg>